<?xml version="1.0" encoding="utf-8"?>
<!-- Generator: Adobe Illustrator 16.0.0, SVG Export Plug-In . SVG Version: 6.00 Build 0)  -->
<!DOCTYPE svg PUBLIC "-//W3C//DTD SVG 1.1//EN" "http://www.w3.org/Graphics/SVG/1.1/DTD/svg11.dtd">
<svg version="1.1" id="Layer_1" xmlns="http://www.w3.org/2000/svg" xmlns:xlink="http://www.w3.org/1999/xlink" x="0px" y="0px"
	 width="50px" height="50px" viewBox="0 0 50 50" enable-background="new 0 0 50 50" xml:space="preserve">
<g>
	<path fill="#1DED87" d="M22.591,32.968c-1.818,1.47-4.03,2.394-6.35,2.692c-4.887,0.63-12.903-0.152-12.055-12.357
		C5.484,4.67,3.272,0.528,3.272,0.528s11.544-0.144,20.241,18.921C27.169,27.461,25.315,30.769,22.591,32.968z"/>
	<path fill="#02C961" d="M4.879,30.064c2.01,5.723,7.607,6.079,11.362,5.596c2.318-0.299,4.531-1.223,6.35-2.692
		c2.725-2.199,4.578-5.507,0.923-13.519C14.816,0.384,3.272,0.528,3.272,0.528S33.252,32.43,4.879,30.064z"/>
	<g>
		<path fill="#0FEA76" d="M32.293,40.697c-1.336-0.68-2.456-1.73-3.237-3.008c-1.648-2.693-3.291-7.586,4.067-10.287
			C44.356,23.28,46.2,20.901,46.2,20.901s3.107,6.713-5.761,16.793C36.713,41.931,34.293,41.713,32.293,40.697z"/>
		<path fill="#02C961" d="M28.512,36.699c0.173,0.354,0.357,0.687,0.544,0.99c0.781,1.277,1.901,2.328,3.237,3.008
			c2,1.016,4.42,1.233,8.146-3.003c8.868-10.08,5.761-16.793,5.761-16.793S43.577,37.173,28.512,36.699z"/>
	</g>
	<path fill="#018E68" d="M34.104,32.951c-3.135,2.432-6.195,2.434-8.509,2.674c-0.566-0.682-1.204-1.35-1.923-1.992
		c-5.103-4.559-8.923-11.284-9.896-15.707c-0.065-0.297-0.497-0.275-0.521,0.029c-0.262,3.341,0.044,10.382,5.77,17.25
		c4.675,5.607-0.563,14.268-0.563,14.268h11.452c0,0,0.642-5.229-2.176-10.625c2.755-0.959,5.221-3.592,6.741-5.523
		C34.677,33.074,34.356,32.756,34.104,32.951z"/>
	<path fill="#1DEE88" d="M23.567,14.898c0.09-2.719,1.236-6.282,4.798-12.102c0,0,0.423,2.957,1.831,5.421
		c0.66,1.155,1.753,4.32,1.479,7.218c-0.212,2.243-2.281,5.708-4.014,5.876C25.437,21.527,23.472,17.793,23.567,14.898z"/>
	<path fill="#02C961" d="M38.333,23.631c1.811-2.031,3.438-5.401,4.871-12.073c0,0-2.345,1.85-5.064,2.664
		c-1.274,0.381-4.248,1.919-6.047,4.207c-1.549,1.968-2,5.305-0.56,6.597C33.058,26.393,36.572,25.608,38.333,23.631z"/>
</g>
<g>
</g>
<g>
</g>
<g>
</g>
<g>
</g>
<g>
</g>
<g>
</g>
</svg>
